<svg width="40" height="40" viewBox="0 0 40 40" fill="none" xmlns="http://www.w3.org/2000/svg">
<g clip-path="url(#clip0)" filter="url(#filter0_f)">
<path d="M6.01 28.2704C6.34148 28.2827 6.65078 28.2143 6.93793 28.0661C7.23664 27.9702 7.49488 27.8068 7.71361 27.575C7.94872 27.3603 8.11446 27.1048 8.21178 26.8103C8.36306 26.5272 8.43147 26.2223 8.41895 25.8955C8.39004 25.6846 8.36113 25.4746 8.33319 25.2638C8.21852 24.861 8.01232 24.5123 7.71361 24.216C7.24242 23.7894 6.66331 23.5206 6.01 23.5206C5.67853 23.5082 5.36923 23.5766 5.08208 23.7248C4.78337 23.8208 4.52513 23.9842 4.3064 24.216C4.07129 24.4306 3.90555 24.6862 3.80823 24.9807C3.65695 25.2638 3.58854 25.5687 3.60106 25.8955C3.62997 26.1064 3.65888 26.3163 3.68682 26.5272C3.80149 26.93 4.00769 27.2786 4.3064 27.575C4.77855 28.0015 5.35766 28.2704 6.01 28.2704Z" fill="white"/>
<path d="M4.55297 22.9354C4.88444 22.9478 5.19375 22.8794 5.4809 22.7312C5.77961 22.6352 6.03785 22.4718 6.25658 22.24C6.49169 22.0254 6.65743 21.7698 6.75475 21.4753C6.90603 21.1922 6.97444 20.8873 6.96192 20.5605C6.93301 20.3496 6.9041 20.1397 6.87616 19.9288C6.76149 19.526 6.55529 19.1774 6.25658 18.881C5.78539 18.4545 5.20628 18.1856 4.55297 18.1856C4.2215 18.1733 3.9122 18.2417 3.62505 18.3899C3.32634 18.4858 3.0681 18.6492 2.84937 18.881C2.61426 19.0957 2.44852 19.3512 2.3512 19.6457C2.19992 19.9288 2.1315 20.2337 2.14403 20.5605C2.17294 20.7714 2.20185 20.9813 2.22979 21.1922C2.34446 21.595 2.55066 21.9437 2.84937 22.24C3.32152 22.6666 3.90063 22.9354 4.55297 22.9354Z" fill="white"/>
<path d="M33.067 28.3729C33.3985 28.3853 33.7078 28.3169 33.9949 28.1687C34.2936 28.0727 34.5519 27.9093 34.7706 27.6775C35.0057 27.4628 35.1715 27.2073 35.2688 26.9128C35.4201 26.6297 35.4885 26.3248 35.476 25.998C35.447 25.7871 35.4181 25.5772 35.3902 25.3663C35.2755 24.9635 35.0693 24.6149 34.7706 24.3185C34.2994 23.892 33.7203 23.6231 33.067 23.6231C32.7355 23.6108 32.4262 23.6792 32.1391 23.8274C31.8404 23.9233 31.5821 24.0867 31.3634 24.3185C31.1283 24.5332 30.9626 24.7887 30.8652 25.0832C30.714 25.3663 30.6455 25.6712 30.6581 25.998C30.687 26.2089 30.7159 26.4188 30.7438 26.6297C30.8585 27.0325 31.0647 27.3812 31.3634 27.6775C31.8356 28.1041 32.4147 28.3729 33.067 28.3729Z" fill="white"/>
<path d="M34.7323 23.2432C35.0638 23.2555 35.3731 23.1871 35.6602 23.0389C35.9589 22.943 36.2172 22.7796 36.4359 22.5478C36.671 22.3331 36.8367 22.0776 36.9341 21.7831C37.0854 21.5 37.1538 21.195 37.1412 20.8683C37.1123 20.6574 37.0834 20.4474 37.0555 20.2365C36.9408 19.8338 36.7346 19.4851 36.4359 19.1887C35.9647 18.7622 35.3856 18.4934 34.7323 18.4934C34.4008 18.481 34.0915 18.5494 33.8044 18.6976C33.5057 18.7935 33.2474 18.9569 33.0287 19.1887C32.7936 19.4034 32.6278 19.659 32.5305 19.9534C32.3792 20.2365 32.3108 20.5415 32.3234 20.8683C32.3523 21.0791 32.3812 21.2891 32.4091 21.5C32.5238 21.9028 32.73 22.2514 33.0287 22.5478C33.5008 22.9743 34.08 23.2432 34.7323 23.2432Z" fill="white"/>
<path d="M34.5239 17.9082C34.8554 17.9205 35.1647 17.8521 35.4518 17.7039C35.7506 17.608 36.0088 17.4446 36.2275 17.2128C36.4626 16.9981 36.6284 16.7426 36.7257 16.4481C36.877 16.165 36.9454 15.8601 36.9329 15.5333C36.904 15.3224 36.875 15.1125 36.8471 14.9016C36.7324 14.4988 36.5262 14.1502 36.2275 13.8538C35.7563 13.4272 35.1772 13.1584 34.5239 13.1584C34.1924 13.146 33.8831 13.2144 33.596 13.3626C33.2973 13.4586 33.039 13.622 32.8203 13.8538C32.5852 14.0685 32.4195 14.324 32.3221 14.6185C32.1709 14.9016 32.1025 15.2065 32.115 15.5333C32.1439 15.7442 32.1728 15.9541 32.2007 16.165C32.3154 16.5678 32.5216 16.9164 32.8203 17.2128C33.2925 17.6394 33.8716 17.9082 34.5239 17.9082Z" fill="white"/>
<path d="M4.96926 17.3629C5.26797 17.3743 5.54644 17.3126 5.80468 17.1786C6.07352 17.0922 6.30574 16.945 6.50231 16.7369C6.71334 16.5431 6.86269 16.3142 6.95038 16.0491C7.08624 15.7946 7.14791 15.52 7.13731 15.2255C7.11226 14.6727 6.92821 14.0998 6.50231 13.7141C6.07834 13.3304 5.55704 13.0881 4.96926 13.0881C4.67055 13.0767 4.39208 13.1385 4.13384 13.2724C3.865 13.3589 3.63278 13.5061 3.43621 13.7141C3.22519 13.9079 3.07583 14.1369 2.98815 14.4019C2.85228 14.6565 2.79061 14.931 2.80121 15.2255C2.82627 15.7784 3.01031 16.3512 3.43621 16.7369C3.86115 17.1207 4.38244 17.3629 4.96926 17.3629Z" fill="white"/>
<path d="M6.94649 12.8164C7.4408 12.8164 7.96017 12.6046 8.30899 12.2597C8.49688 12.0878 8.62986 11.8835 8.70791 11.648C8.82835 11.4219 8.88424 11.1777 8.87364 10.9155C8.85148 10.4244 8.68767 9.91429 8.30899 9.5723C7.93223 9.23127 7.46875 9.01562 6.94649 9.01562C6.45217 9.01562 5.93281 9.22747 5.58399 9.5723C5.39609 9.74424 5.26312 9.94848 5.18507 10.1841C5.06462 10.4102 5.00874 10.6543 5.01933 10.9165C5.0415 11.4076 5.2053 11.9177 5.58399 12.2597C5.96171 12.6008 6.42519 12.8164 6.94649 12.8164Z" fill="white"/>
<path d="M9.86043 9.53345C10.3547 9.53345 10.8741 9.32161 11.2229 8.97677C11.4108 8.80483 11.5438 8.60059 11.6218 8.365C11.7423 8.13891 11.7982 7.89477 11.7876 7.63258C11.7654 7.14145 11.6016 6.63133 11.2229 6.28934C10.8462 5.94831 10.3827 5.73267 9.86043 5.73267C9.36611 5.73267 8.84675 5.94451 8.49793 6.28934C8.31003 6.46128 8.17706 6.66552 8.09901 6.90111C7.97856 7.1272 7.92268 7.37134 7.93328 7.63353C7.95544 8.12466 8.11925 8.63479 8.49793 8.97677C8.87565 9.31781 9.33913 9.53345 9.86043 9.53345Z" fill="white"/>
<path d="M13.5028 7.17358C13.9971 7.17358 14.5164 6.96174 14.8653 6.61691C15.0532 6.44497 15.1861 6.24073 15.2642 6.00514C15.3846 5.77905 15.4405 5.53491 15.4299 5.27272C15.4078 4.78159 15.2439 4.27146 14.8653 3.92948C14.4885 3.58844 14.025 3.3728 13.5028 3.3728C13.0084 3.3728 12.4891 3.58464 12.1403 3.92948C11.9524 4.10142 11.8194 4.30566 11.7413 4.54125C11.6209 4.76734 11.565 5.01148 11.5756 5.27367C11.5978 5.7648 11.7616 6.27492 12.1403 6.61691C12.518 6.95794 12.9815 7.17358 13.5028 7.17358Z" fill="white"/>
<path d="M17.7694 5.94253C18.2637 5.94253 18.7831 5.73069 19.1319 5.38586C19.3198 5.21391 19.4527 5.00967 19.5308 4.77408C19.6512 4.54799 19.7071 4.30385 19.6965 4.04167C19.6744 3.55054 19.5106 3.04041 19.1319 2.69843C18.7551 2.35834 18.2916 2.1427 17.7694 2.1427C17.2751 2.1427 16.7557 2.35454 16.4069 2.69938C16.219 2.87132 16.086 3.07556 16.0079 3.31115C15.8875 3.53724 15.8316 3.78138 15.8422 4.04357C15.8644 4.53469 16.0282 5.04482 16.4069 5.38681C16.7846 5.72689 17.2481 5.94253 17.7694 5.94253Z" fill="white"/>
<path d="M22.2442 5.94253C22.7385 5.94253 23.2579 5.73069 23.6067 5.38586C23.7946 5.21391 23.9276 5.00967 24.0056 4.77408C24.1261 4.54799 24.182 4.30385 24.1714 4.04167C24.1492 3.55054 23.9854 3.04041 23.6067 2.69843C23.23 2.35834 22.7665 2.1427 22.2442 2.1427C21.7499 2.1427 21.2305 2.35454 20.8817 2.69938C20.6938 2.87132 20.5608 3.07556 20.4828 3.31115C20.3624 3.53724 20.3065 3.78138 20.3171 4.04357C20.3392 4.53469 20.503 5.04482 20.8817 5.38681C21.2594 5.72689 21.7229 5.94253 22.2442 5.94253Z" fill="white"/>
<path d="M26.4068 7.37891C26.9011 7.37891 27.4205 7.16707 27.7693 6.82223C27.9572 6.65029 28.0902 6.44605 28.1682 6.21046C28.2887 5.98437 28.3446 5.74023 28.334 5.47804C28.3118 4.98691 28.148 4.47679 27.7693 4.1348C27.3926 3.79377 26.9291 3.57812 26.4068 3.57812C25.9125 3.57812 25.3931 3.78997 25.0443 4.1348C24.8564 4.30674 24.7234 4.51098 24.6454 4.74657C24.525 4.97266 24.4691 5.2168 24.4797 5.47899C24.5018 5.97012 24.6656 6.48025 25.0443 6.82223C25.422 7.16327 25.8855 7.37891 26.4068 7.37891Z" fill="white"/>
<path d="M30.0492 9.73853C30.5435 9.73853 31.0628 9.52668 31.4117 9.18185C31.5996 9.00991 31.7325 8.80567 31.8106 8.57008C31.931 8.34399 31.9869 8.09985 31.9763 7.83766C31.9541 7.34653 31.7903 6.8364 31.4117 6.49442C31.0349 6.15338 30.5714 5.93774 30.0492 5.93774C29.5548 5.93774 29.0355 6.14958 28.6867 6.49442C28.4988 6.66636 28.3658 6.8706 28.2877 7.10619C28.1673 7.33228 28.1114 7.57642 28.122 7.83861C28.1442 8.32974 28.308 8.83987 28.6867 9.18185C29.0644 9.52289 29.5279 9.73853 30.0492 9.73853Z" fill="white"/>
<path d="M32.859 13.0216C33.3533 13.0216 33.8726 12.8098 34.2215 12.4649C34.4094 12.293 34.5423 12.0887 34.6204 11.8532C34.7408 11.6271 34.7967 11.3829 34.7861 11.1207C34.764 10.6296 34.6001 10.1195 34.2215 9.7775C33.8447 9.43647 33.3812 9.22083 32.859 9.22083C32.3646 9.22083 31.8453 9.43267 31.4965 9.7775C31.3086 9.94944 31.1756 10.1537 31.0975 10.3893C30.9771 10.6154 30.9212 10.8595 30.9318 11.1217C30.954 11.6128 31.1178 12.1229 31.4965 12.4649C31.8742 12.806 32.3377 13.0216 32.859 13.0216Z" fill="white"/>
<path d="M10.0686 34.9979C10.5658 35.016 11.0303 34.9143 11.461 34.6911C11.909 34.5477 12.2964 34.3016 12.624 33.9549C12.9767 33.6319 13.2253 33.25 13.3708 32.8083C13.5972 32.3837 13.7003 31.9258 13.682 31.4356C13.6387 31.1202 13.5963 30.8039 13.5529 30.4885C13.3814 29.8853 13.0711 29.3609 12.624 28.9163C12.3802 28.7311 12.1364 28.5449 11.8927 28.3596C11.329 28.0376 10.7209 27.8752 10.0686 27.8733C9.5714 27.8552 9.10696 27.9569 8.67624 28.1801C8.22818 28.3235 7.84082 28.5696 7.5132 28.9163C7.16053 29.2393 6.91193 29.6212 6.76643 30.0629C6.53999 30.4875 6.43689 30.9454 6.45519 31.4356C6.49856 31.751 6.54095 32.0673 6.58431 32.3827C6.75583 32.9859 7.0661 33.5103 7.5132 33.9549C7.75699 34.1401 8.00077 34.3263 8.24456 34.5116C8.80921 34.8336 9.41723 34.996 10.0686 34.9979Z" fill="white"/>
<path d="M29.0084 34.7927C29.5056 34.8108 29.9701 34.7091 30.4008 34.4859C30.8489 34.3425 31.2362 34.0964 31.5638 33.7497C31.9165 33.4267 32.1651 33.0448 32.3106 32.6031C32.537 32.1785 32.6401 31.7206 32.6218 31.2304C32.5785 30.915 32.5361 30.5987 32.4927 30.2833C32.3212 29.6801 32.0109 29.1557 31.5638 28.7111C31.32 28.5259 31.0763 28.3397 30.8325 28.1544C30.2688 27.8324 29.6608 27.67 29.0084 27.6681C28.5112 27.65 28.0468 27.7517 27.6161 27.9749C27.168 28.1183 26.7806 28.3644 26.453 28.7111C26.1004 29.0341 25.8517 29.416 25.7062 29.8577C25.4798 30.2823 25.3767 30.7402 25.395 31.2304C25.4384 31.5458 25.4808 31.8621 25.5241 32.1775C25.6956 32.7807 26.0059 33.3051 26.453 33.7497C26.6968 33.9349 26.9406 34.1211 27.1844 34.3064C27.749 34.6284 28.357 34.7908 29.0084 34.7927Z" fill="white"/>
</g>
<circle cx="20" cy="20" r="19" stroke="white" stroke-width="2"/>
<defs>
<filter id="filter0_f" x="1.14307" y="1.1427" width="37" height="34.8571" filterUnits="userSpaceOnUse" color-interpolation-filters="sRGB">
<feFlood flood-opacity="0" result="BackgroundImageFix"/>
<feBlend mode="normal" in="SourceGraphic" in2="BackgroundImageFix" result="shape"/>
<feGaussianBlur stdDeviation="0.5" result="effect1_foregroundBlur"/>
</filter>
<clipPath id="clip0">
<rect width="35" height="32.8571" fill="white" transform="translate(2.14307 2.1427)"/>
</clipPath>
</defs>
</svg>
